<mxfile host="app.diagrams.net" modified="2024-05-03T07:33:19.608Z" agent="Mozilla/5.0 (Windows NT 10.0; Win64; x64) AppleWebKit/537.36 (KHTML, like Gecko) Chrome/124.0.0.0 Safari/537.36" etag="bpohDJYSKy2oUwzzof0N" version="24.3.1" type="github">
  <diagram name="Page-1" id="EUKkAcMyldxiWancd2qJ">
    <mxGraphModel dx="1290" dy="522" grid="1" gridSize="10" guides="1" tooltips="1" connect="1" arrows="1" fold="1" page="1" pageScale="1" pageWidth="827" pageHeight="1169" math="0" shadow="0">
      <root>
        <mxCell id="0" />
        <mxCell id="1" parent="0" />
        <mxCell id="8I5Qshr0xH5UfiaBefdQ-1" value="" style="points=[[0.13,0.225,0],[0.5,0,0],[0.87,0.225,0],[0.885,0.5,0],[0.985,0.99,0],[0.5,1,0],[0.015,0.99,0],[0.115,0.5,0]];verticalLabelPosition=bottom;sketch=0;html=1;verticalAlign=top;aspect=fixed;align=center;pointerEvents=1;shape=mxgraph.cisco19.laptop_video_client;fillColor=#005073;strokeColor=none;" parent="1" vertex="1">
          <mxGeometry x="30" y="210" width="125.29" height="106.5" as="geometry" />
        </mxCell>
        <mxCell id="8I5Qshr0xH5UfiaBefdQ-2" value="&lt;b&gt;Client&lt;/b&gt;" style="text;html=1;align=center;verticalAlign=middle;whiteSpace=wrap;rounded=0;fillColor=#dae8fc;strokeColor=#6c8ebf;" parent="1" vertex="1">
          <mxGeometry x="52.64" y="330" width="80" height="40" as="geometry" />
        </mxCell>
        <mxCell id="8I5Qshr0xH5UfiaBefdQ-4" value="Server contents" style="points=[[0,0],[0.25,0],[0.5,0],[0.75,0],[1,0],[1,0.25],[1,0.5],[1,0.75],[1,1],[0.75,1],[0.5,1],[0.25,1],[0,1],[0,0.75],[0,0.5],[0,0.25]];outlineConnect=0;html=1;whiteSpace=wrap;fontSize=12;fontStyle=0;container=1;pointerEvents=0;collapsible=0;recursiveResize=0;shape=mxgraph.aws4.group;grIcon=mxgraph.aws4.group_on_premise;strokeColor=#b85450;fillColor=#f8cecc;verticalAlign=top;align=left;spacingLeft=30;dashed=0;" parent="1" vertex="1">
          <mxGeometry x="290" y="80" width="290" height="410" as="geometry" />
        </mxCell>
        <mxCell id="8I5Qshr0xH5UfiaBefdQ-6" value="" style="rounded=1;whiteSpace=wrap;html=1;rotation=-90;" parent="8I5Qshr0xH5UfiaBefdQ-4" vertex="1">
          <mxGeometry x="-36.56" y="163.44" width="166.88" height="60" as="geometry" />
        </mxCell>
        <mxCell id="8I5Qshr0xH5UfiaBefdQ-7" value="&lt;b style=&quot;background-color: rgb(255, 255, 255);&quot;&gt;CONTROLLER&lt;/b&gt;" style="text;html=1;align=center;verticalAlign=middle;whiteSpace=wrap;rounded=0;rotation=-90;fillColor=#dae8fc;strokeColor=#6c8ebf;" parent="8I5Qshr0xH5UfiaBefdQ-4" vertex="1">
          <mxGeometry y="190" width="93.75" height="20" as="geometry" />
        </mxCell>
        <mxCell id="8I5Qshr0xH5UfiaBefdQ-10" value="" style="ellipse;whiteSpace=wrap;html=1;" parent="8I5Qshr0xH5UfiaBefdQ-4" vertex="1">
          <mxGeometry x="130.32" y="30" width="119.68" height="90" as="geometry" />
        </mxCell>
        <mxCell id="8I5Qshr0xH5UfiaBefdQ-11" value="" style="ellipse;whiteSpace=wrap;html=1;" parent="8I5Qshr0xH5UfiaBefdQ-4" vertex="1">
          <mxGeometry x="130" y="280" width="130" height="100" as="geometry" />
        </mxCell>
        <mxCell id="8I5Qshr0xH5UfiaBefdQ-12" value="Model&amp;nbsp;" style="text;html=1;align=center;verticalAlign=middle;whiteSpace=wrap;rounded=0;fillColor=#1ba1e2;strokeColor=#006EAF;fontColor=#ffffff;" parent="8I5Qshr0xH5UfiaBefdQ-4" vertex="1">
          <mxGeometry x="165.16" y="62.5" width="50" height="25" as="geometry" />
        </mxCell>
        <mxCell id="8I5Qshr0xH5UfiaBefdQ-27" value="" style="dashed=1;dashPattern=8 4;endArrow=blockThin;endFill=1;startArrow=oval;startFill=0;endSize=6;startSize=4;html=1;rounded=0;" parent="8I5Qshr0xH5UfiaBefdQ-4" target="8I5Qshr0xH5UfiaBefdQ-10" edge="1">
          <mxGeometry width="160" relative="1" as="geometry">
            <mxPoint x="80" y="170" as="sourcePoint" />
            <mxPoint x="240" y="170" as="targetPoint" />
          </mxGeometry>
        </mxCell>
        <mxCell id="8I5Qshr0xH5UfiaBefdQ-28" value="" style="dashed=1;dashPattern=8 4;endArrow=blockThin;endFill=1;startArrow=oval;startFill=0;endSize=6;startSize=4;html=1;rounded=0;entryX=0;entryY=0;entryDx=0;entryDy=0;" parent="8I5Qshr0xH5UfiaBefdQ-4" target="8I5Qshr0xH5UfiaBefdQ-11" edge="1">
          <mxGeometry width="160" relative="1" as="geometry">
            <mxPoint x="80" y="230" as="sourcePoint" />
            <mxPoint x="160" y="280" as="targetPoint" />
            <Array as="points">
              <mxPoint x="100" y="250" />
            </Array>
          </mxGeometry>
        </mxCell>
        <mxCell id="8I5Qshr0xH5UfiaBefdQ-31" style="edgeStyle=none;rounded=0;orthogonalLoop=1;jettySize=auto;html=1;entryX=0.449;entryY=1.052;entryDx=0;entryDy=0;entryPerimeter=0;exitX=0.301;exitY=1.04;exitDx=0;exitDy=0;exitPerimeter=0;" parent="8I5Qshr0xH5UfiaBefdQ-4" source="8I5Qshr0xH5UfiaBefdQ-10" target="8I5Qshr0xH5UfiaBefdQ-6" edge="1">
          <mxGeometry relative="1" as="geometry">
            <mxPoint x="160" y="130" as="sourcePoint" />
          </mxGeometry>
        </mxCell>
        <mxCell id="8I5Qshr0xH5UfiaBefdQ-39" value="View" style="text;html=1;align=center;verticalAlign=middle;whiteSpace=wrap;rounded=0;fillColor=#1ba1e2;strokeColor=#006EAF;fontColor=#ffffff;" parent="8I5Qshr0xH5UfiaBefdQ-4" vertex="1">
          <mxGeometry x="162.74" y="318.75" width="54.84" height="22.5" as="geometry" />
        </mxCell>
        <mxCell id="8I5Qshr0xH5UfiaBefdQ-5" value="" style="image;html=1;image=img/lib/clip_art/computers/Database_Minus_128x128.png" parent="1" vertex="1">
          <mxGeometry x="710" y="206.5" width="90" height="110" as="geometry" />
        </mxCell>
        <mxCell id="8I5Qshr0xH5UfiaBefdQ-26" value="" style="dashed=1;dashPattern=8 4;endArrow=blockThin;endFill=1;startArrow=oval;startFill=0;endSize=6;startSize=4;html=1;rounded=0;entryX=0.5;entryY=0;entryDx=0;entryDy=0;" parent="1" target="8I5Qshr0xH5UfiaBefdQ-6" edge="1">
          <mxGeometry width="160" relative="1" as="geometry">
            <mxPoint x="120" y="273" as="sourcePoint" />
            <mxPoint x="280" y="273" as="targetPoint" />
          </mxGeometry>
        </mxCell>
        <mxCell id="8I5Qshr0xH5UfiaBefdQ-32" value="" style="dashed=1;dashPattern=8 4;endArrow=blockThin;endFill=1;startArrow=oval;startFill=0;endSize=6;startSize=4;html=1;rounded=0;exitX=1;exitY=0.5;exitDx=0;exitDy=0;" parent="1" edge="1">
          <mxGeometry width="160" relative="1" as="geometry">
            <mxPoint x="539.9999999999998" y="170" as="sourcePoint" />
            <mxPoint x="700" y="245" as="targetPoint" />
          </mxGeometry>
        </mxCell>
        <mxCell id="8I5Qshr0xH5UfiaBefdQ-34" value="" style="endArrow=classic;html=1;rounded=0;exitX=0;exitY=0.75;exitDx=0;exitDy=0;entryX=0.743;entryY=0.996;entryDx=0;entryDy=0;entryPerimeter=0;" parent="1" source="8I5Qshr0xH5UfiaBefdQ-5" target="8I5Qshr0xH5UfiaBefdQ-10" edge="1">
          <mxGeometry width="50" height="50" relative="1" as="geometry">
            <mxPoint x="700" y="290" as="sourcePoint" />
            <mxPoint x="590" y="240" as="targetPoint" />
            <Array as="points" />
          </mxGeometry>
        </mxCell>
        <mxCell id="8I5Qshr0xH5UfiaBefdQ-35" value="&lt;b&gt;DATABASE&lt;/b&gt;" style="text;html=1;align=center;verticalAlign=middle;whiteSpace=wrap;rounded=0;fillColor=#dae8fc;strokeColor=#6c8ebf;" parent="1" vertex="1">
          <mxGeometry x="710" y="316.5" width="80" height="40" as="geometry" />
        </mxCell>
        <mxCell id="8I5Qshr0xH5UfiaBefdQ-36" value="" style="edgeStyle=elbowEdgeStyle;fontSize=12;html=1;endArrow=blockThin;endFill=1;startArrow=dash;startFill=0;endSize=6;startSize=6;rounded=0;entryX=0.958;entryY=0.845;entryDx=0;entryDy=0;entryPerimeter=0;" parent="1" source="8I5Qshr0xH5UfiaBefdQ-11" target="8I5Qshr0xH5UfiaBefdQ-1" edge="1">
          <mxGeometry width="160" relative="1" as="geometry">
            <mxPoint x="150" y="420" as="sourcePoint" />
            <mxPoint x="40" y="440" as="targetPoint" />
            <Array as="points">
              <mxPoint x="220" y="400" />
            </Array>
          </mxGeometry>
        </mxCell>
        <mxCell id="NcwZDFWgW-O6RfQRwhyx-1" value="&lt;b&gt;Server&lt;/b&gt;" style="text;html=1;align=center;verticalAlign=middle;whiteSpace=wrap;rounded=0;fillColor=#dae8fc;strokeColor=#6c8ebf;" vertex="1" parent="1">
          <mxGeometry x="390" y="520" width="80" height="40" as="geometry" />
        </mxCell>
      </root>
    </mxGraphModel>
  </diagram>
</mxfile>
